<svg width="24" height="24" viewBox="0 0 24 24" fill="none" xmlns="http://www.w3.org/2000/svg">
<g id="gitlab" clip-path="url(#clip0_747_2466)">
<path id="Vector" d="M22.6501 14.39L12.0001 22.13L1.35005 14.39C1.20728 14.285 1.10137 14.1375 1.04749 13.9687C0.993603 13.7998 0.994501 13.6183 1.05005 13.45L2.27005 9.66996L4.71005 2.15996C4.73372 2.09877 4.77139 2.04397 4.82005 1.99996C4.89929 1.92758 5.00273 1.88745 5.11005 1.88745C5.21737 1.88745 5.32081 1.92758 5.40005 1.99996C5.45144 2.04963 5.4893 2.11158 5.51005 2.17996L7.95005 9.66996H16.0501L18.4901 2.15996C18.5137 2.09877 18.5514 2.04397 18.6001 1.99996C18.6793 1.92758 18.7827 1.88745 18.8901 1.88745C18.9974 1.88745 19.1008 1.92758 19.1801 1.99996C19.2314 2.04963 19.2693 2.11158 19.2901 2.17996L21.7301 9.68996L23.0001 13.45C23.0506 13.6234 23.0438 13.8086 22.9808 13.9779C22.9177 14.1473 22.8017 14.2918 22.6501 14.39V14.39Z" stroke="white" stroke-width="2" stroke-linecap="round" stroke-linejoin="round"/>
</g>
<defs>
<clipPath id="clip0_747_2466">
<rect width="24" height="24" fill="white"/>
</clipPath>
</defs>
</svg>
