<svg width="24" height="24" viewBox="0 0 24 24" fill="none" xmlns="http://www.w3.org/2000/svg">
<g id="linkedin">
<path id="Vector" d="M16 8C17.5913 8 19.1174 8.63214 20.2426 9.75736C21.3678 10.8826 22 12.4087 22 14V21H18V14C18 13.4696 17.7893 12.9609 17.4142 12.5858C17.0391 12.2107 16.5304 12 16 12C15.4695 12 14.9608 12.2107 14.5858 12.5858C14.2107 12.9609 14 13.4696 14 14V21H9.99997V14C9.99997 12.4087 10.6321 10.8826 11.7573 9.75736C12.8825 8.63214 14.4087 8 16 8V8Z" stroke="white" stroke-width="2" stroke-linecap="round" stroke-linejoin="round"/>
<path id="Vector_2" d="M6.00003 9H2.00003V21H6.00003V9Z" stroke="white" stroke-width="2" stroke-linecap="round" stroke-linejoin="round"/>
<path id="Vector_3" d="M4.00003 6C5.1046 6 6.00003 5.10457 6.00003 4C6.00003 2.89543 5.1046 2 4.00003 2C2.89546 2 2.00003 2.89543 2.00003 4C2.00003 5.10457 2.89546 6 4.00003 6Z" stroke="white" stroke-width="2" stroke-linecap="round" stroke-linejoin="round"/>
</g>
</svg>
