<svg width="106" height="36" viewBox="0 0 106 36" fill="none" xmlns="http://www.w3.org/2000/svg">
<path d="M66.832 31H61.756L50.38 13.72V31H45.304V5.584H50.38L61.756 23.008V5.584H66.832V31ZM70.8491 5.332C70.8491 4.516 71.1371 3.856 71.7131 3.352C72.2891 2.824 73.0451 2.56 73.9811 2.56C74.9171 2.56 75.6731 2.824 76.2491 3.352C76.8251 3.856 77.1131 4.516 77.1131 5.332C77.1131 6.124 76.8251 6.784 76.2491 7.312C75.6731 7.816 74.9171 8.068 73.9811 8.068C73.0451 8.068 72.2891 7.816 71.7131 7.312C71.1371 6.784 70.8491 6.124 70.8491 5.332ZM76.5011 11.056V31H71.4251V11.056H76.5011ZM90.9571 7.6C89.4691 7.504 88.4251 7.72 87.8251 8.248C87.2251 8.776 86.9251 9.7 86.9251 11.02V11.056H90.9571V15.34H86.9251V31H81.8491V15.34H79.2931V11.056H81.8491V10.588C81.8491 8.212 82.5211 6.388 83.8651 5.116C85.2331 3.82 87.2491 3.172 89.9131 3.172C90.3691 3.172 90.7171 3.184 90.9571 3.208V7.6ZM104.651 26.644V31H101.987C99.7554 31 98.0394 30.46 96.8394 29.38C95.6634 28.3 95.0754 26.5 95.0754 23.98V15.34H92.3034V11.056H95.0754V6.124H100.151V11.056H104.615V15.34H100.151V24.052C100.151 25.012 100.343 25.684 100.727 26.068C101.111 26.452 101.759 26.644 102.671 26.644H104.651Z" fill="white"/>
<path d="M9.83472 4.61963V21.4809L21.5457 35.9999V18.3558L9.83472 4.61963Z" fill="url(#paint0_linear_106_21114)"/>
<path d="M9.76995 4.53564H0V35.9806H9.82171L9.82818 21.4745L9.83465 21.481V4.61976L9.76995 4.53564Z" fill="white"/>
<path d="M32.2278 3.46143H29.7368V5.95244H32.2278V3.46143Z" fill="white"/>
<path d="M34.2594 1.43628H32.2278V3.46791H34.2594V1.43628Z" fill="url(#paint1_linear_106_21114)"/>
<path d="M32.2279 0H30.7915V1.43638H32.2279V0Z" fill="white"/>
<path d="M31.3803 7.31787H28.1453V10.553H31.3803V7.31787Z" fill="url(#paint2_linear_106_21114)"/>
<path d="M28.1452 13.3998V10.5529H24.9748V7.31782H28.1452V4.53564H21.6104V18.4206L21.5457 18.3559V36.0001L31.3803 35.9806V13.3998H28.1452Z" fill="white"/>
<defs>
<linearGradient id="paint0_linear_106_21114" x1="5.10152" y1="4.61963" x2="22.4733" y2="5.24293" gradientUnits="userSpaceOnUse">
<stop stop-color="#02FCCF"/>
<stop offset="1" stop-color="#1448FF"/>
</linearGradient>
<linearGradient id="paint1_linear_106_21114" x1="31.4067" y1="1.43628" x2="34.3966" y2="1.72374" gradientUnits="userSpaceOnUse">
<stop stop-color="#FCAD02"/>
<stop offset="1" stop-color="#FF0041"/>
</linearGradient>
<linearGradient id="paint2_linear_106_21114" x1="26.8378" y1="7.31787" x2="31.5988" y2="7.77561" gradientUnits="userSpaceOnUse">
<stop stop-color="#FCAD02"/>
<stop offset="1" stop-color="#FF0041"/>
</linearGradient>
</defs>
</svg>
