<svg width="24" height="24" viewBox="0 0 24 24" fill="none" xmlns="http://www.w3.org/2000/svg">
<g id="twitter">
<path id="Vector" d="M23 3.00029C22.0424 3.67577 20.9821 4.1924 19.86 4.53029C19.2577 3.8378 18.4573 3.34698 17.567 3.12422C16.6767 2.90145 15.7395 2.95749 14.8821 3.28474C14.0246 3.612 13.2884 4.19469 12.773 4.95401C12.2575 5.71332 11.9877 6.61263 12 7.53029V8.53029C10.2426 8.57586 8.50126 8.1861 6.93099 7.39574C5.36073 6.60537 4.0103 5.43893 2.99998 4.00029C2.99998 4.00029 -1.00001 13.0003 7.99998 17.0003C5.94051 18.3983 3.48714 19.0992 0.999985 19.0003C9.99998 24.0003 21 19.0003 21 7.50029C20.9991 7.22174 20.9723 6.94388 20.92 6.67029C21.9406 5.66378 22.6608 4.393 23 3.00029Z" stroke="white" stroke-width="2" stroke-linecap="round" stroke-linejoin="round"/>
</g>
</svg>
